<svg width="373" height="293" viewBox="0 0 373 293" fill="none" xmlns="http://www.w3.org/2000/svg">
<path d="M131.265 7.93489C143.658 3.19631 160.073 0.606613 168.114 11.1858C175.385 20.7181 170.979 35.5399 177.919 45.2926C185.85 56.4228 203.036 54.2188 215.594 48.9292C240.381 38.4602 261.532 20.8283 285.877 9.36749C316.998 -5.28907 368.334 -7.43797 372.74 37.9643C374.117 52.0699 369.766 66.0102 365.304 79.4545C360.843 92.8989 355.995 106.564 356.381 120.724C356.822 136.373 363.597 151.415 363.486 167.118C363.376 186.954 352.03 205.413 337.213 218.582C317.604 235.993 290.669 249.162 266.985 260.017C242.529 271.202 216.586 279.136 190.367 284.977C163.212 291.038 123.609 301.893 104.606 274.288C98.6022 265.527 96.1786 254.892 94.2508 244.479C92.323 234.065 90.7256 223.375 86.0988 213.843C81.4169 204.256 73.8158 197.754 63.9563 193.952C53.6011 189.985 42.2544 193.291 31.4034 191.087C9.48124 186.679 -2.52641 160.782 0.447961 138.577C4.68919 106.839 27.3825 85.6257 48.093 63.7511C71.282 39.1765 99.814 19.9467 131.265 7.93489Z" fill="#F2EBFF"/>
<path d="M80.811 236.599C81.3067 242.881 80.2051 249.603 76.1291 254.396C72.0531 259.245 64.6172 261.449 59.1642 258.309C55.8042 256.38 53.7112 252.854 51.7833 249.493C47.3218 241.779 42.8602 234.01 38.4537 226.296C30.9077 213.182 34.9286 195.054 52.885 201.335C67.7568 206.57 79.5441 220.786 80.811 236.599Z" fill="#F2EBFF"/>
</svg>
