<svg width="24" height="20" viewBox="0 0 24 20" fill="none" xmlns="http://www.w3.org/2000/svg">
<path d="M12 0C11.8557 1.78565e-05 11.7129 0.0276469 11.5798 0.0812877C11.4466 0.134928 11.3259 0.213516 11.2244 0.3125L0.221591 9.57648C0.152873 9.62541 0.0970222 9.68922 0.0585342 9.76278C0.0200462 9.83634 -3.28112e-06 9.9176 4.02754e-10 10C4.02755e-10 10.1396 0.0574673 10.2735 0.15976 10.3722C0.262052 10.4709 0.400791 10.5263 0.545455 10.5263H3.27273V18.9474C3.27273 19.5284 3.76145 20 4.36364 20H8.72727C9.32945 20 9.81818 19.5284 9.81818 18.9474V12.6316H14.1818V18.9474C14.1818 19.5284 14.6705 20 15.2727 20H19.6364C20.2385 20 20.7273 19.5284 20.7273 18.9474V10.5263H23.4545C23.5992 10.5263 23.7379 10.4709 23.8402 10.3722C23.9425 10.2735 24 10.1396 24 10C24 9.9176 23.98 9.83634 23.9415 9.76278C23.903 9.68922 23.8471 9.62541 23.7784 9.57648L12.782 0.318668C12.7798 0.316603 12.7777 0.314547 12.7756 0.3125C12.6741 0.213516 12.5534 0.134928 12.4202 0.0812877C12.2871 0.0276469 12.1443 1.78565e-05 12 0Z" fill="#0652DD"/>
</svg>
