<svg width="26" height="26" viewBox="0 0 26 26" fill="none" xmlns="http://www.w3.org/2000/svg">
<path d="M0 23.3332V7.33322H25.3333V23.3332C25.3333 24.7999 24.1333 25.9999 22.6667 25.9999H2.66667C1.2 25.9999 0 24.7999 0 23.3332Z" fill="#0652DD"/>
<path d="M25.3333 4.66645V8.66645H0V4.66645C0 3.19979 1.2 1.99979 2.66667 1.99979H22.6667C24.1333 1.99979 25.3333 3.19979 25.3333 4.66645Z" fill="#003CAB"/>
<path d="M18.6667 2.66672C18.1363 2.66672 17.6276 2.87743 17.2525 3.2525C16.8775 3.62758 16.6667 4.13628 16.6667 4.66672C16.6667 5.19715 16.8775 5.70586 17.2525 6.08093C17.6276 6.456 18.1363 6.66672 18.6667 6.66672C19.1972 6.66672 19.7059 6.456 20.081 6.08093C20.456 5.70586 20.6667 5.19715 20.6667 4.66672C20.6667 4.13628 20.456 3.62758 20.081 3.2525C19.7059 2.87743 19.1972 2.66672 18.6667 2.66672ZM6.66675 2.66672C6.13632 2.66672 5.62761 2.87743 5.25253 3.2525C4.87746 3.62758 4.66675 4.13628 4.66675 4.66672C4.66675 5.19715 4.87746 5.70586 5.25253 6.08093C5.62761 6.456 6.13632 6.66672 6.66675 6.66672C7.19718 6.66672 7.70589 6.456 8.08096 6.08093C8.45603 5.70586 8.66675 5.19715 8.66675 4.66672C8.66675 4.13628 8.45603 3.62758 8.08096 3.2525C7.70589 2.87743 7.19718 2.66672 6.66675 2.66672Z" fill="#0652DD"/>
<path d="M18.6668 0C17.9335 0 17.3335 0.6 17.3335 1.33333V4.66667C17.3335 5.4 17.9335 6 18.6668 6C19.4002 6 20.0002 5.4 20.0002 4.66667V1.33333C20.0002 0.6 19.4002 0 18.6668 0ZM6.66683 0C5.9335 0 5.3335 0.6 5.3335 1.33333V4.66667C5.3335 5.4 5.9335 6 6.66683 6C7.40016 6 8.00016 5.4 8.00016 4.66667V1.33333C8.00016 0.6 7.40016 0 6.66683 0Z" fill="#87B1FF"/>
<path d="M5.3335 11.3333H8.00016V14H5.3335V11.3333ZM9.3335 11.3333H12.0002V14H9.3335V11.3333ZM13.3335 11.3333H16.0002V14H13.3335V11.3333ZM17.3335 11.3333H20.0002V14H17.3335V11.3333ZM5.3335 15.3333H8.00016V18H5.3335V15.3333ZM9.3335 15.3333H12.0002V18H9.3335V15.3333ZM13.3335 15.3333H16.0002V18H13.3335V15.3333ZM17.3335 15.3333H20.0002V18H17.3335V15.3333ZM5.3335 19.3333H8.00016V22H5.3335V19.3333ZM9.3335 19.3333H12.0002V22H9.3335V19.3333ZM13.3335 19.3333H16.0002V22H13.3335V19.3333ZM17.3335 19.3333H20.0002V22H17.3335V19.3333Z" fill="white"/>
</svg>
